<?xml version="1.0" encoding="UTF-8"?>
<svg version="1.1" xmlns="http://www.w3.org/2000/svg" width="400" height="234">
<path d="M0 0 C23.12617217 16.77625158 36.23450331 40.2016354 41.07421875 67.91796875 C42.43094915 80.0571355 42.26171875 92.32822001 42.26171875 104.54296875 C-16.47828125 104.54296875 -75.21828125 104.54296875 -135.73828125 104.54296875 C-133.23212125 135.86996874 -128.44263682 163.43197399 -103.73828125 184.54296875 C-84.9021738 198.20931863 -63.66718864 202.09330439 -40.84228516 199.17236328 C-22.33375279 196.03924727 -4.74398103 188.79981526 6.72265625 173.3203125 C11.62521715 166.29257272 14.99658674 158.90795495 17.9921875 150.91015625 C22.31305985 139.44987328 22.31305985 139.44987328 27.26171875 136.54296875 C29.98828125 136.21484375 29.98828125 136.21484375 32.88671875 136.29296875 C33.84835938 136.3084375 34.81 136.32390625 35.80078125 136.33984375 C38.26171875 136.54296875 38.26171875 136.54296875 40.26171875 137.54296875 C36.69595889 156.6183345 30.30628474 173.85200123 17.26171875 188.54296875 C16.67003906 189.22875 16.07835937 189.91453125 15.46875 190.62109375 C0.15723827 207.20584419 -23.79790461 216.00140794 -45.91796875 216.921875 C-59.91034322 217.25286222 -73.37695199 216.96979342 -86.73828125 212.54296875 C-87.39280273 212.32866211 -88.04732422 212.11435547 -88.72167969 211.89355469 C-102.64175627 207.17103982 -114.2317467 199.75197312 -124.73828125 189.54296875 C-125.69154297 188.68251953 -125.69154297 188.68251953 -126.6640625 187.8046875 C-147.435378 168.50716822 -154.32302448 134.48766921 -155.43579102 107.38623047 C-155.6234715 95.20882255 -154.03641556 83.61780522 -151.61328125 71.73046875 C-151.40125061 70.677491 -151.40125061 70.677491 -151.18493652 69.60324097 C-145.54832437 42.26760071 -131.91351736 18.11558533 -109.0234375 1.58203125 C-106.30975714 -0.20113318 -103.56171139 -1.85379679 -100.73828125 -3.45703125 C-99.82691406 -3.98039063 -98.91554687 -4.50375 -97.9765625 -5.04296875 C-67.35257293 -21.50388538 -28.69184802 -19.59272272 0 0 Z M-104.73828125 19.54296875 C-105.38796875 20.05085938 -106.03765625 20.55875 -106.70703125 21.08203125 C-122.57645606 33.96067985 -131.56915809 55.79689368 -134.73828125 75.54296875 C-135.06828125 79.83296875 -135.39828125 84.12296875 -135.73828125 88.54296875 C-82.93828125 88.54296875 -30.13828125 88.54296875 24.26171875 88.54296875 C24.26171875 62.7247446 15.89069778 39.81496794 -1.98828125 20.91796875 C-9.62875767 13.48469169 -18.83462755 8.36175047 -28.73828125 4.54296875 C-29.5684375 4.22199219 -30.39859375 3.90101562 -31.25390625 3.5703125 C-55.8646621 -4.1655245 -85.3806326 2.91298878 -104.73828125 19.54296875 Z " fill="#000000" transform="translate(154.73828125,16.45703125)"/>
<path d="M0 0 C5.24970526 3.85559266 8.73915152 8.34518183 12.5 13.625 C13.73938022 15.33608464 14.9789694 17.04701794 16.21875 18.7578125 C16.84652344 19.62954102 17.47429687 20.50126953 18.12109375 21.39941406 C21.05110868 25.45483494 24.02644364 29.47646023 27 33.5 C28.16824135 35.08443446 29.33620948 36.66907041 30.50390625 38.25390625 C31.08156738 39.03781738 31.65922852 39.82172852 32.25439453 40.62939453 C33.99271607 42.99010812 35.72903448 45.35228247 37.46484375 47.71484375 C44.26284136 56.96199344 51.10458798 66.17339012 58.02709961 75.32788086 C61.1530069 79.47518741 64.17754159 83.63993365 67 88 C71.74724435 83.57166842 75.54016613 78.55261746 79.4375 73.375 C80.14197266 72.44494141 80.84644531 71.51488281 81.57226562 70.55664062 C86.67408842 63.80463256 91.70240804 57.00023758 96.7043457 50.17407227 C101.77328989 43.27035246 106.95065793 36.4523838 112.16210938 29.65576172 C115.28048709 25.58589851 118.37812754 21.50661845 121.3984375 17.36328125 C135.06427236 -1.3587439 135.06427236 -1.3587439 144 -3 C149.31300245 -3.42541835 153.05453347 -3.0610801 158 -1 C153.80912139 5.46992386 149.32842716 11.6449201 144.625 17.75 C143.20434606 19.60410459 141.78377555 21.4582731 140.36328125 23.3125 C139.64092285 24.25351562 138.91856445 25.19453125 138.17431641 26.1640625 C134.70889828 30.68397009 131.2615894 35.21762864 127.8125 39.75 C119.16690355 51.09944787 110.51194497 62.44175065 101.8125 73.75 C101.02230469 74.77738281 100.23210937 75.80476563 99.41796875 76.86328125 C97.71558823 79.07170057 96.01006167 81.27740979 94.30078125 83.48046875 C93.85307373 84.05893555 93.40536621 84.63740234 92.9440918 85.23339844 C91.70630851 86.83245957 90.46650607 88.42995716 89.2265625 90.02734375 C88.49179687 91.00832031 87.75703125 91.98929687 87 93 C86.24460937 93.95003906 85.48921875 94.90007812 84.7109375 95.87890625 C82.59879939 99.73187051 81.97810058 102.76009999 83 107 C84.64169632 110.18977401 86.76509249 112.89148805 89 115.6875 C89.62648438 116.50347656 90.25296875 117.31945312 90.8984375 118.16015625 C92.23425273 119.89724404 93.57824214 121.62807177 94.9296875 123.35302734 C97.65101875 126.83235204 100.32324078 130.34788266 102.99609375 133.86450195 C104.33992644 135.63188425 105.68631276 137.39732759 107.03515625 139.16088867 C112.00620316 145.66263969 116.87496952 152.23340588 121.7109375 158.8359375 C126.7287522 165.67015571 131.8669438 172.4084859 137.02148438 179.13989258 C142.18045382 185.89004563 147.23282167 192.71286629 152.24267578 199.57421875 C155.91829039 204.59100854 159.7032288 209.45566554 163.7421875 214.1875 C165 216 165 216 165 219 C157.3749699 220.9677497 149.98068822 220.7575123 143 217 C137.18828605 212.67008066 132.89679147 207.62019517 128.8125 201.6875 C127.68386015 200.08705169 126.55494612 198.48679669 125.42578125 196.88671875 C124.85811035 196.07509277 124.29043945 195.2634668 123.70556641 194.42724609 C121.00923281 190.59000753 118.2530512 186.79663709 115.5 183 C114.41635141 181.50022774 113.33301868 180.0002272 112.25 178.5 C111.445625 177.38625 111.445625 177.38625 110.625 176.25 C105.75 169.5 105.75 169.5 104.12524414 167.25024414 C103.04121584 165.7493445 101.95706858 164.24853078 100.87280273 162.74780273 C98.17412345 159.01226033 95.47748688 155.27527746 92.78515625 151.53515625 C90.10321001 147.81000524 87.41109579 144.09233316 84.71630859 140.37646484 C82.85985354 137.80594799 81.0181563 135.22515475 79.17578125 132.64453125 C77.90928218 130.8877122 76.64236522 129.13119432 75.375 127.375 C74.78275635 126.538479 74.1905127 125.70195801 73.58032227 124.84008789 C72.74778931 123.69334595 72.74778931 123.69334595 71.8984375 122.5234375 C71.41036621 121.84200684 70.92229492 121.16057617 70.41943359 120.45849609 C69.95102051 119.97719238 69.48260742 119.49588867 69 119 C68.01 119 67.02 119 66 119 C64.38119187 120.965915 62.97371285 122.89130724 61.5625 125 C60.66462141 126.29946493 59.76480566 127.59759301 58.86328125 128.89453125 C58.3935791 129.57338379 57.92387695 130.25223633 57.43994141 130.95166016 C55.11857566 134.25384032 52.68577184 137.46927734 50.25 140.6875 C44.02994723 148.93698955 37.90200201 157.25262916 31.78222656 165.57666016 C30.02014228 167.97261201 28.2565134 170.36741719 26.4921875 172.76171875 C25.9154126 173.54450195 25.3386377 174.32728516 24.74438477 175.13378906 C23.58401495 176.70779945 22.42304738 178.28136934 21.26147461 179.85449219 C18.26596443 183.91343996 15.28428918 187.98152473 12.32421875 192.06640625 C-6.88927467 218.51475253 -6.88927467 218.51475253 -16 220 C-20.75200299 220.28903059 -25.36960238 220.19494132 -30 219 C-28.65283182 216.13746643 -27.12226944 213.65713196 -25.234375 211.12109375 C-24.68152832 210.3748877 -24.12868164 209.62868164 -23.55908203 208.85986328 C-22.96208496 208.0604834 -22.36508789 207.26110352 -21.75 206.4375 C-20.47121176 204.71494946 -19.19256988 202.99229026 -17.9140625 201.26953125 C-17.26083008 200.39119629 -16.60759766 199.51286133 -15.93457031 198.60791016 C-14.12252262 196.16516742 -12.32046207 193.71552648 -10.5234375 191.26171875 C-3.74917148 182.01514262 3.13833725 172.86558265 10.10888672 163.76611328 C14.87148586 157.52995193 19.49281458 151.20685042 24.05566406 144.82373047 C28.36589192 138.81896276 32.81989712 132.93173436 37.3125 127.0625 C47.00263186 115.07574442 47.00263186 115.07574442 55 102 C54.16597656 100.98421875 53.33195312 99.9684375 52.47265625 98.921875 C46.54835189 91.68321774 40.71842798 84.41327432 35.15234375 76.89453125 C32.92724654 73.90215915 30.65708866 70.94910309 28.375 68 C24.72073498 63.27612311 21.13070496 58.50727997 17.56030273 53.71972656 C11.94673959 46.19343047 6.26648536 38.7491255 0.35693359 31.45288086 C-3.8134546 26.28528711 -7.79859361 20.99075719 -11.75561523 15.65869141 C-15.26920002 10.93443541 -18.90054577 6.34284146 -22.671875 1.8203125 C-24 0 -24 0 -24 -2 C-15.98162261 -3.79149333 -7.30443292 -4.28897564 0 0 Z " fill="#000000" transform="translate(235,9)"/>
</svg>
