<?xml version="1.0" encoding="UTF-8"?>
<svg version="1.1" xmlns="http://www.w3.org/2000/svg" width="225" height="225">
<path d="M0 0 C74.25 0 148.5 0 225 0 C225 74.25 225 148.5 225 225 C150.75 225 76.5 225 0 225 C0 150.75 0 76.5 0 0 Z " fill="#2C6041" transform="translate(0,0)"/>
<path d="M0 0 C74.25 0 148.5 0 225 0 C225 27.06 225 54.12 225 82 C150.75 82 76.5 82 0 82 C0 54.94 0 27.88 0 0 Z " fill="#265F3E" transform="translate(0,0)"/>
<path d="M0 0 C74.25 0 148.5 0 225 0 C225 11.55 225 23.1 225 35 C150.75 35 76.5 35 0 35 C0 23.45 0 11.9 0 0 Z " fill="#235E3B" transform="translate(0,47)"/>
<path d="M0 0 C74.25 0 148.5 0 225 0 C225 4.95 225 9.9 225 15 C150.75 15 76.5 15 0 15 C0 10.05 0 5.1 0 0 Z " fill="#597163" transform="translate(0,210)"/>
<path d="M0 0 C74.25 0 148.5 0 225 0 C225 4.95 225 9.9 225 15 C150.75 15 76.5 15 0 15 C0 10.05 0 5.1 0 0 Z " fill="#163E27" transform="translate(0,67)"/>
<path d="M0 0 C74.25 0 148.5 0 225 0 C225 2.31 225 4.62 225 7 C150.75 7 76.5 7 0 7 C0 4.69 0 2.38 0 0 Z " fill="#64756B" transform="translate(0,218)"/>
<path d="M0 0 C74.25 0 148.5 0 225 0 C225 2.31 225 4.62 225 7 C150.75 7 76.5 7 0 7 C0 4.69 0 2.38 0 0 Z " fill="#1E5C38" transform="translate(0,82)"/>
<path d="M0 0 C74.25 0 148.5 0 225 0 C225 2.31 225 4.62 225 7 C150.75 7 76.5 7 0 7 C0 4.69 0 2.38 0 0 Z " fill="#275F3E" transform="translate(0,16)"/>
<path d="M0 0 C74.25 0 148.5 0 225 0 C225 0.99 225 1.98 225 3 C208.6877274 3.20880177 192.37524145 3.39427374 176.0625 3.5625 C174.82897797 3.57523327 173.59545593 3.58796654 172.32455444 3.60108566 C131.37490041 4.01697251 90.44945661 3.98088974 49.5 3.5625 C47.61696104 3.54327925 47.61696104 3.54327925 45.69588089 3.5236702 C30.46370516 3.36661593 15.23176796 3.19250685 0 3 C0 2.01 0 1.02 0 0 Z " fill="#1A402A" transform="translate(0,13)"/>
<path d="M0 0 C74.25 0 148.5 0 225 0 C225 0.99 225 1.98 225 3 C150.75 3 76.5 3 0 3 C0 2.01 0 1.02 0 0 Z " fill="#97A39C" transform="translate(0,222)"/>
<path d="M0 0 C74.25 0 148.5 0 225 0 C225 0.99 225 1.98 225 3 C150.75 3 76.5 3 0 3 C0 2.01 0 1.02 0 0 Z " fill="#297B4B" transform="translate(0,82)"/>
<path d="M0 0 C74.25 0 148.5 0 225 0 C225 0.99 225 1.98 225 3 C150.75 3 76.5 3 0 3 C0 2.01 0 1.02 0 0 Z " fill="#153D26" transform="translate(0,79)"/>
<path d="M0 0 C74.25 0 148.5 0 225 0 C225 0.99 225 1.98 225 3 C150.75 3 76.5 3 0 3 C0 2.01 0 1.02 0 0 Z " fill="#2A7C4C" transform="translate(0,76)"/>
<path d="M0 0 C74.25 0 148.5 0 225 0 C225 0.99 225 1.98 225 3 C150.75 3 76.5 3 0 3 C0 2.01 0 1.02 0 0 Z " fill="#153E26" transform="translate(0,73)"/>
<path d="M0 0 C74.25 0 148.5 0 225 0 C225 0.99 225 1.98 225 3 C150.75 3 76.5 3 0 3 C0 2.01 0 1.02 0 0 Z " fill="#357F54" transform="translate(0,0)"/>
<path d="M0 0 C74.25 0 148.5 0 225 0 C225 0.99 225 1.98 225 3 C150.75 3 76.5 3 0 3 C0 2.01 0 1.02 0 0 Z " fill="#347F53" transform="translate(0,16)"/>
<path d="M0 0 C74.25 0 148.5 0 225 0 C225 0.99 225 1.98 225 3 C150.75 3 76.5 3 0 3 C0 2.01 0 1.02 0 0 Z " fill="#2C7C4D" transform="translate(0,70)"/>
</svg>
